/* XPM */
static char *pymol-32[] = {
/* columns rows colors chars-per-pixel */
"32 32 95 2",
"   c #003700370037",
".  c #081B07E9081C",
"X  c #0A540A370A51",
"o  c #143414261422",
"O  c #184B17F3184C",
"+  c #1BF11BC81BD3",
"@  c #241423DC23C9",
"#  c #284228692808",
"$  c #2C422C062BE9",
"%  c #30CE3054302B",
"&  c #355B352134CF",
"*  c #383D3824381A",
"=  c #38C0387337F1",
"-  c #3CB03C623C87",
";  c #444C440B4469",
":  c #496447E047E8",
">  c #48D1483A48FE",
",  c #48E6492D47DA",
"<  c #4B5F4B0D4B1A",
"1  c #4CBE52894D17",
"2  c #50FE4FC95007",
"3  c #510E4FD45277",
"4  c #54AB5496549B",
"5  c #578C57C85895",
"6  c #55695C3F555A",
"7  c #5D8154E25546",
"8  c #5BAC5C3B5BD6",
"9  c #5C5B5D5169FB",
"0  c #5CA860527367",
"q  c #5F3163BA5F68",
"w  c #5F2E697F5FA2",
"e  c #56F3739C56C6",
"r  c #5CFB71755D42",
"t  c #5F447BF65F64",
"y  c #65DA5EB35D23",
"u  c #643C6514644E",
"i  c #659E693965D7",
"p  c #697967376758",
"a  c #6D696B4D628D",
"s  c #6C316C376BDD",
"d  c #66A5678C75D0",
"f  c #6E906EC87140",
"g  c #62B07546626B",
"h  c #6DB0732B6D97",
"j  c #6BF27BF56B07",
"k  c #7E726B636B52",
"l  c #792474B5705E",
"z  c #73AC744B73DE",
"x  c #728074CD7D3E",
"c  c #757E7C4D756B",
"v  c #77DE78A27995",
"b  c #7913777771CB",
"n  c #79817B257834",
"m  c #7B6D7ED67B5F",
"M  c #7FBB801F80FA",
"N  c #5BAE826F5B80",
"B  c #64FF814B684F",
"V  c #684783BE687C",
"C  c #69D287AC69CC",
"Z  c #6D8688C36DE0",
"A  c #749582407463",
"S  c #780C884978A0",
"D  c #754C8BC174EA",
"F  c #7CD183A07CFA",
"G  c #7D598C757BED",
"H  c #778C939C77CE",
"J  c #768F9B2C7725",
"K  c #7D8595CA7D73",
"L  c #7A1CA39A7A2F",
"P  c #7EEE81418629",
"I  c #7FC689BD81DA",
"U  c #82777FC17CF8",
"Y  c #847382987906",
"T  c #8DE587A77A14",
"R  c #97D68D477B59",
"E  c #9ACD894776D4",
"W  c #856D85E48545",
"Q  c #85A28D6785F1",
"!  c #8B258DC38B79",
"~  c #844693F38485",
"^  c #86FC9A2E87AE",
"/  c #8CF894938CA8",
"(  c #89449E06880D",
")  c #8CE19C4C8D55",
"_  c #90409141909E",
"`  c #91AD98318CD2",
"'  c #9422966F93FD",
"]  c #94AE9CAA9518",
"[  c #9D659E3E9CC8",
"{  c #9413A6A494B8",
"}  c #9711ADA396F8",
"|  c #9D2EA5F79CDD",
" . c #98BCAB5C9889",
".. c #9BD4ACC89B79",
"X. c #A5B3AB5AA5D9",
/* pixels */
"                                                                ",
"                                                                ",
"                                                                ",
"                                                                ",
"                                      o X .                     ",
"                                    + ; : $ .                   ",
"                                  X 4 z m p > # .               ",
"                                  O 8 m ' m z 4 @               ",
"                                . $ u P { ) _ h - o             ",
"                                . < W ]  . .^ f > O             ",
"                O + o           + s [ X...| ) s 2 #             ",
"              O : 4 - # o       @ s ' | { _ ~ w 8 - .           ",
"              # 8 z i z u * .   O < z S L F A w 4 - .           ",
"            . % y F ! _ W u @   . $ 4 u J D A 4 : # .           ",
"            . - s Q ) ] / s & .   # 8 n ( H V 4 > #             ",
"            . - s Q ) ^ G u < +   O q W [ S B < 3 - .           ",
"            . $ 8 F / Q K m p - . . > z W z 0 9 5 : o           ",
"              O > y c Q ^ / U 5 o . $ < 5 8 d x q ; o           ",
"                $ > i G ~ ' / i @ # - - - u W ~ z 8 +           ",
"                O * 6 z Q ' W 8 - > 8 > < z Q / W f #           ",
"                . + ; u n Y 8 4 8 8 r 1 , h Q ` W s #           ",
"                    @ 4 s k y q h V N e 1 w G ( Y 5 O           ",
"                    . % 3 5 a Z K j 6 g C g g D z 9 O           ",
"                      O - > u A ~ z p j H s 5 c Q p #           ",
"                        o - p c K G U T Y f 8 u i 4 O           ",
"                        . - u I Z G R E b u ; % & @ .           ",
"                        . ; z b 8 h b a 8 5 % .                 ",
"                          $ 5 4 < 8 y 5 4 : +                   ",
"                          . O O O @ - ; - # .                   ",
"                                    . o X                       ",
"                                                                ",
"                                                                "
};
